<svg xmlns="http://www.w3.org/2000/svg" width="625" height="429" viewBox="0 0 625 429">
  <defs>
    <style>
      .cls-1 {
        fill: #fff;
      }

      .cls-2 {
        fill: #66155f;
        fill-rule: evenodd;
      }
    </style>
  </defs>
  <circle class="cls-1" cx="313" cy="215" r="208.219"/>
  <path id="Ellipse_1_copy" data-name="Ellipse 1 copy" class="cls-2" d="M313,415c-110.457,0-200-89.543-200-200S202.543,15,313,15s200,89.543,200,200S423.457,415,313,415Zm0-382.118A182.118,182.118,0,1,0,495.118,215,182.118,182.118,0,0,0,313,32.882Z"/>
  <path id="Layer" class="cls-2" d="M313,38.216A176.784,176.784,0,1,1,136.216,215,176.784,176.784,0,0,1,313,38.216Zm-6.737,17.1A92.575,92.575,0,0,1,320.4,61.4a72.361,72.361,0,0,0,13.567,5.794c14.838,4.381,26.285,13.424,32.5,25.719,3.533,6.783,4.239,10.033,4.239,17.946,0,10.174.283,9.468-11.87,32.078-3.392,6.217-3.675,8.054-2.968,14.979,0.706,6.358.424,8.337-1.413,10.174-1.272,1.413-2.827,2.4-3.533,2.4-0.565,0-.848-5.935-0.707-13.142,0.424-11.163,1.131-14.413,4.946-22.892,4.1-8.761,4.522-10.881,3.816-19.077-0.283-5.087-1.555-11.446-2.685-14.131L354.17,96.3l-2.261,7.772c-5.087,17.24-25.72,41.122-50.309,57.938-52.57,36.316-78.008,62.035-85.073,85.916-0.99,3.25-1.979,5.653-2.4,5.37-0.282-.424.565-4.239,1.837-8.761,6.642-22.892,23.883-45.643,52.288-69.525,18.654-15.544,18.654-15.827,0-3.815-31.231,20.066-46.776,35.327-56.669,55.252-10.316,20.631-9.892,38.295,1.272,60.2l6.36,12.436-5.794-3.25c-9.327-5.088-24.024-20.49-28.688-29.958-3.674-7.631-4.1-9.892-4.1-22.751,0-13.425.282-14.7,4.946-23.882,5.37-10.739,17.523-24.588,28.687-32.784,3.957-2.967,14.274-9.044,22.894-13.424,8.479-4.522,15.121-8.055,14.556-8.2-2.261,0-31.655,10.315-37.167,13-3.109,1.7-8.338,4.8-11.729,7.066-3.392,2.4-6.5,3.815-7.066,3.391-0.424-.565,3.674-10.033,9.185-21.055,5.653-11.022,10.458-21.338,10.882-22.892s2.12-11.588,3.674-22.469c2.4-16.674,3.533-21.338,8.338-31.088C242.67,60.265,274.891,45.71,306.263,55.319ZM346.4,167.1c0.282,2.4-6.218,11.022-16.959,22.044-5.37,5.511-10.74,5.087-26.285-2.261-7.631-3.533-14.273-5.935-15.969-5.511-3.25.848-9.468,7.913-11.446,13-3.533,9.185-.989,20.348,6.924,30.947,4.946,6.641,3.109,7.065-3.533,1.13-7.207-6.5-12.153-17.805-11.164-25.294,0.989-7.773,7.631-17.664,15.4-23.175l6.642-4.805,6.642,5.087c7.49,5.794,14.979,9.185,19.926,9.185,4.663,0,12.577-6.217,14.273-11.3,1.13-2.968,2.543-4.1,5.511-4.522,2.968-.283,3.816-1.131,3.533-3.109-0.565-2.685,2.12-5.37,4.663-4.663C345.408,164.128,346.115,165.541,346.4,167.1Zm65.571,24.588c8.055,2.261,16.817,9.75,21.2,18.229a37.164,37.164,0,0,1,.848,32.36c-6.077,12.859-20.35,23.6-31.09,23.316-4.24,0-5.37.424-5.37,2.4,0,5.653-4.664,15.262-10.317,20.914-3.25,3.392-11.588,9.751-18.653,14.131-24.448,15.262-36.6,25.3-44.94,37.024-2.4,3.391-2.4,3.391-.282-1.979,3.109-7.913,2.685-11.022-2.261-17.805-11.871-16.25-14.556-32.5-7.49-42.958,3.25-4.663,3.533-6.359,2.826-12.011-0.424-3.533-3.109-11.164-5.794-16.816s-4.239-9.892-3.391-9.468c1.554,0.989,12.577,23.881,12.577,26.142,0,3.392,5.935,12.859,9.892,15.827,3.957,2.826,4.24,3.674,4.24,12.294,0,10.174-1.414,10.033-4.24-.141-4.663-17.664-17.1-12.153-15.121,6.641,1.413,13.566,8.762,19.5,20.915,17.1,10.316-1.978,48.331-28.262,54.266-37.447a34.189,34.189,0,0,0,4.1-10.175c1.414-7.631,5.37-12.011,13.143-13.99,9.61-2.26,15.686-6.5,20.35-13.848,7.348-11.587,6.783-23.881-1.555-35.328-6.924-9.609-21.9-15.544-31.938-12.718-5.511,1.414-12.294,9.468-11.022,13,1.13,2.826-.848,2.826-7.49.141-2.685-1.13-5.229-2.119-5.37-2.119a15.5,15.5,0,0,0-1.131,4.239c-0.706,2.968-2.4,4.946-6.359,6.924-6.642,3.392-9.468,9.185-8.2,16.392,1.131,5.794,7.773,13.99,13.991,17.24l4.381,2.261-4.381,3.957c-7.631,6.783-18.23,8.478-28.829,4.8-7.49-2.685-13-7.772-24.024-22.185-9.61-12.436-17.523-19.5-22.046-19.5-2.826,0-2.543.706,2.968,6.217,3.392,3.392,6.925,7.631,7.914,9.468s-1.413.142-5.229-3.815c-3.815-4.1-9.044-8.337-11.588-9.609-3.815-1.979-4.239-2.826-2.968-5.087,1.979-3.816,8.762-7.066,14.556-7.066,14.556,0,26.285,9.327,43.243,34.338,5.653,8.338,10.882,15.4,11.447,15.827s2.685-.565,4.381-1.978c2.826-2.4,3.109-3.25,1.7-5.37-12.012-17.522-13.708-33.349-4.24-38.436a16.8,16.8,0,0,0,5.512-5.794c1.978-3.533,3.25-4.239,7.913-4.239,3.392,0,6.36-.848,7.49-2.261,0.99-1.272,5.088-4.1,9.045-6.359C393.315,189.988,402.218,189,411.969,191.684Zm34.482,30.805c2.119,9.186,2.119,12.294.706,20.49-3.109,18.23-12.012,34.056-28.122,49.318-4.664,4.522-14.414,14.7-21.622,22.61-19.219,21.337-52.287,53.7-60.06,58.785-10.74,7.207-13,6.641-33.209-9.185-49.179-38.3-71.225-61.894-79.138-84.787-3.109-9.326-3.533-21.2-.707-27.838,1.837-4.239,8.762-12.153,10.882-12.153,0.423,0,.282,2.968-0.283,6.642-2.685,17.381,9.468,41.687,30.666,61.046,9.751,8.9,19.643,15.686,36.46,25.012,6.783,3.815,13.849,8.62,15.686,10.74l3.109,3.674,10.316-5.511c24.166-13.142,50.027-32.926,81.117-62.036,10.457-9.891,20.349-23.74,24.589-34.762,3.533-8.9,6.5-24.729,5.653-30.1C441.222,206.1,444.048,211.75,446.451,222.489Z"/>
</svg>
