<svg xmlns="http://www.w3.org/2000/svg" xmlns:xlink="http://www.w3.org/1999/xlink" width="12196" height="2100" viewBox="0 0 12196 2100">
  <defs>
    <style>
      .cls-1, .cls-2, .cls-3 {
        fill-rule: evenodd;
      }

      .cls-1 {
        fill: url(#linear-gradient);
      }

      .cls-2 {
        fill: url(#linear-gradient-2);
      }

      .cls-3 {
        fill: url(#linear-gradient-3);
      }
    </style>
    <linearGradient id="linear-gradient" x1="11945.7" y1="1046.297" x2="2481" y2="1046.298" gradientUnits="userSpaceOnUse">
      <stop offset="0" stop-color="#ffb5e8"/>
      <stop offset="1" stop-color="#9c27b0"/>
    </linearGradient>
    <linearGradient id="linear-gradient-2" x1="1131.001" y1="2092.09" x2="1131.001" y2="10.969" xlink:href="#linear-gradient"/>
    <linearGradient id="linear-gradient-3" x1="1129.794" y1="1957.75" x2="1129.794" y2="143.844" xlink:href="#linear-gradient"/>
  </defs>
  <path id="motherly" class="cls-1" d="M2480.99,1498.17c0,63.23,30.84,123.38,112.58,123.38s112.58-60.15,112.58-123.38V810.331h3.09L2945.2,1547.52c16.97,52.43,55.52,74.03,107.96,74.03s90.99-21.6,107.95-74.03l235.97-737.189h3.08V1498.17c0,63.23,30.84,123.38,112.58,123.38s112.59-60.15,112.59-123.38V595.96c0-101.788-69.4-124.921-137.26-124.921h-70.95c-78.65,0-115.66,30.845-141.88,115.668L3057.78,1299.22h-3.08L2834.16,586.707c-26.22-84.823-63.23-115.668-141.89-115.668h-74.02c-67.86,0-137.26,23.133-137.26,124.921v902.21Zm1417.29-465.76c0,336.21,163.48,595.31,561.38,595.31,379.39,0,561.37-282.23,561.37-595.31,0-325.409-197.41-567.54-561.37-567.54S3898.28,707,3898.28,1032.41Zm252.93,0c0-212.826,101.79-363.965,308.45-363.965S4768.1,819.584,4768.1,1032.41s-78.65,391.73-308.44,391.73C4222.15,1424.14,4151.21,1245.24,4151.21,1032.41Zm1418.85,462.67c0,75.57,49.35,126.47,126.46,126.47s126.46-50.9,126.46-126.47V703.916h239.05c72.49,0,131.09-37.013,131.09-106.414s-58.6-106.414-131.09-106.414H5331.01c-72.48,0-131.09,37.014-131.09,106.414s58.61,106.414,131.09,106.414h239.05V1495.08Zm851.31,0c0,75.57,49.35,126.47,126.47,126.47s126.46-50.9,126.46-126.47V1124.95h459.59v370.13c0,75.57,49.35,126.47,126.46,126.47s126.46-50.9,126.46-126.47V597.5c0-75.569-49.35-126.463-126.46-126.463S7133.89,521.933,7133.89,597.5V912.118H6674.3V597.5c0-75.569-49.35-126.463-126.46-126.463S6421.37,521.933,6421.37,597.5V1495.08Zm1298.57-41.64c0,112.59,58.6,148.06,148.05,148.06h606.1c74.03,0,128.01-21.59,128.01-101.79s-53.98-101.79-128.01-101.79H7972.86V1129.57H8401.6c66.32,0,118.76-18.5,118.76-97.16s-52.44-97.158-118.76-97.158H7972.86V694.663h488.89c74.03,0,128.01-21.591,128.01-101.788s-53.98-101.787-128.01-101.787H7867.99c-89.45,0-148.05,35.471-148.05,148.055v814.3Zm1142.79,41.64c0,75.57,49.35,126.47,126.46,126.47s126.47-50.9,126.47-126.47V1169.67H9365.5c138.8,0,174.27,78.66,174.27,272.98,0,44.72,10.8,178.9,149.6,178.9,58.6,0,118.75-40.1,118.75-98.71,0-52.43-33.93-100.24-33.93-228.25,0-112.58-23.13-206.66-152.68-225.16v-3.09c120.3-27.76,191.24-146.511,191.24-266.8,0-143.428-80.2-308.447-380.93-308.447H9010.79c-89.45,0-148.06,35.471-148.06,148.055V1495.08Zm252.93-809.67H9376.3c111.04,0,183.52,30.844,183.52,149.6,0,124.921-95.62,149.6-191.24,149.6H9115.66V685.41Zm982.44,768.03c0,112.59,58.6,148.06,148,148.06h527.5c72.4,0,131-37.02,131-106.42s-58.6-106.41-131-106.41H10351V597.5c0-75.569-49.4-126.463-126.5-126.463s-126.4,50.894-126.4,126.463V1453.44Zm1263,41.64c0,75.57,49.4,126.47,126.5,126.47s126.5-50.9,126.5-126.47V1168.13l310-515.107c12.3-20.049,21.5-43.183,21.5-66.316,0-86.366-78.6-115.668-124.9-115.668-52.4,0-80.2,18.507-109.5,74.027l-219,405.608-220.5-405.608c-26.2-49.351-54-74.027-114.1-74.027-49.4,0-128,29.3-128,115.668,0,23.133,9.2,46.267,21.6,66.316l309.9,515.107v326.95Z"/>
  <path id="Layer" class="cls-2" d="M963.573,22.082C859.877,39,774.566,67.7,669.4,120.671,612.77,148.63,543.639,189.1,514.957,210.432,450.238,258.991,348.748,359.788,301.68,421.59,197.248,559.174,123.7,737.959,98.7,914.537c-11.767,83.874-4.413,264.133,14.708,350.213,75.015,345.8,316.238,629.06,642.037,756.34,317.705,123.61,671.455,84.61,958.275-107.42,219.16-146.41,372.13-370.81,436.11-641.56,17.65-72.11,19.12-94.91,19.12-213.37-0.73-108.152-3.67-146.41-16.91-209.684-31.62-148.62-77.22-257.51-159.59-380.379q-152.235-227.343-403.76-351.684C1433.52,39.74,1302.61,9.574,1125.37,11.046,1068.74,11.782,995.932,16.2,963.573,22.082ZM1331.29,122.143c171.36,33.844,336.1,124.34,471.42,259.717,136.79,135.376,219.16,289.882,261.81,487.8,19.86,94.175,21.33,271.493,2.94,358.3-55.89,259.72-194.89,465.73-412.58,614.35-97.07,65.48-196.36,107.42-321.38,136.11-105.9,24.28-274.32,27.96-373.6,7.36-199.3-40.47-355.951-123.61-497.155-264.87-135.321-134.64-221.367-293.56-264.758-489.27-18.385-82.4-18.385-293.559,0-371.548,45.6-195.707,133.85-354.628,272.112-487.061,112.522-108.89,221.367-176.578,359.629-222.194C990.049,97.128,1159.2,87.563,1331.29,122.143Z"/>
  <path id="Layer-2" data-name="Layer" class="cls-3" d="M1040.79,147.894c-100.015,10.3-255.928,58.124-337.561,103C538.491,342.13,406.112,478.978,323.743,642.312c-56.628,112.569-99.284,291.354-99.284,411.278,0.736,59.6,20.592,186.14,40.449,255.3,119.876,411.28,526.573,687.19,950.182,644.51,365.51-37.52,658.95-270.01,773.68-615.08,35.3-105.94,46.33-169.95,46.33-283.26,0.74-110.358-11.03-185.4-41.92-281.786-41.92-130.226-106.63-242.059-194.89-338.441-44.86-48.559-138.99-126.547-191.21-158.184C1443.08,178.059,1226.12,128.765,1040.79,147.894Zm54.43,72.1c19.85,5.886,52.95,20.6,73.54,31.636,20.59,11.772,52.22,25.016,70.6,30.166,77.22,22.808,136.79,69.9,169.15,133.905,18.39,35.316,22.07,52.238,22.07,93.439,0,52.974,1.47,49.3-61.78,167.014-17.65,32.372-19.12,41.937-15.45,77.988,3.68,33.109,2.21,43.409-7.35,52.974-6.62,7.357-14.71,12.507-18.39,12.507-2.94,0-4.41-30.9-3.67-68.424,2.2-58.123,5.88-75.045,25.74-119.19,21.33-45.616,23.53-56.652,19.85-99.325-1.47-26.487-8.09-59.6-13.97-73.574l-11.03-25.751-11.77,40.466c-26.47,89.76-133.85,214.1-261.81,301.654C797.364,964.567,664.986,1098.47,628.214,1222.81c-5.148,16.92-10.3,29.43-12.5,27.96-1.471-2.21,2.941-22.07,9.56-45.61,34.566-119.2,124.289-237.65,272.112-361.99,97.077-80.932,97.077-82.4,0-19.865C734.852,927.78,653.954,1007.24,602.474,1110.98c-53.687,107.42-51.481,199.39,6.619,313.43l33.094,64.74-30.153-16.92c-48.538-26.49-125.024-106.68-149.293-155.98-19.122-39.73-21.328-51.5-21.328-118.45,0-69.9,1.471-76.52,25.74-124.34,27.947-55.92,91.195-128.022,149.294-170.7,20.592-15.45,74.279-47.087,119.141-69.895,44.126-23.544,78.691-41.938,75.75-42.673-11.767,0-164.738,53.709-193.42,67.688-16.18,8.829-43.391,25.015-61.041,36.787-17.651,12.508-33.83,19.865-36.772,17.658-2.206-2.943,19.121-52.238,47.8-109.626,29.418-57.388,54.422-111.1,56.629-119.19s11.031-60.331,19.121-116.983c12.5-86.817,18.386-111.1,43.391-161.863C764.27,245.748,931.949,169.966,1095.22,220Zm208.86,581.971c1.47,12.508-32.36,57.388-88.25,114.776-27.95,28.694-55.9,26.487-136.79-11.772-39.72-18.393-74.28-30.9-83.108-28.694-16.915,4.415-49.274,41.2-59.57,67.689-18.386,47.823-5.148,105.943,36.036,161.123,25.741,34.58,16.18,36.79-18.386,5.89-37.507-33.84-63.247-92.7-58.1-131.7,5.148-40.466,39.714-91.967,80.163-120.661l34.564-25.016,34.57,26.487c38.97,30.165,77.95,47.823,103.69,47.823,24.27,0,65.46-32.372,74.28-58.859,5.89-15.451,13.24-21.337,28.68-23.544,15.45-1.471,19.86-5.886,18.39-16.186-2.94-13.979,11.03-27.958,24.27-24.28C1298.93,786.518,1302.61,793.875,1304.08,801.968Zm341.24,128.02c41.92,11.771,87.52,50.766,110.32,94.912,27.21,51.5,28.68,116.25,4.41,168.48-31.62,66.96-105.9,122.87-161.79,121.4-22.07,0-27.95,2.21-27.95,12.51,0,29.43-24.27,79.46-53.69,108.89-16.91,17.66-60.3,50.76-97.08,73.57-127.23,79.46-190.47,131.7-233.86,192.77-12.51,17.65-12.51,17.65-1.48-10.3,16.18-41.21,13.98-57.39-11.76-92.71-61.78-84.61-75.75-169.22-38.98-223.66,16.91-24.28,18.39-33.11,14.71-62.54-2.21-18.39-16.18-58.12-30.16-87.55s-22.06-51.51-17.65-49.3c8.09,5.15,65.46,124.34,65.46,136.11,0,17.66,30.89,66.96,51.48,82.41,20.59,14.71,22.06,19.13,22.06,64.01,0,52.97-7.35,52.23-22.06-.74-24.27-91.97-88.99-63.27-78.69,34.58,7.35,70.63,45.59,101.53,108.84,89.02,53.69-10.3,251.52-147.14,282.41-194.97,8.82-14.71,19.12-38.26,21.33-52.97,7.35-39.73,27.94-62.54,68.39-72.84,50.01-11.77,81.64-33.84,105.91-72.1,38.24-60.33,35.3-124.34-8.09-183.94-36.04-50.027-114-80.928-166.21-66.214-28.68,7.358-63.99,49.295-57.37,67.684,5.89,14.72-4.41,14.72-38.98.74-13.97-5.89-27.21-11.036-27.94-11.036s-3.68,9.566-5.89,22.076c-3.67,15.45-12.5,25.75-33.09,36.05-34.57,17.66-49.27,47.82-42.66,85.34,5.89,30.17,40.45,72.84,72.81,89.76l22.8,11.78-22.8,20.6c-39.71,35.31-94.87,44.14-150.03,25.01-38.97-13.98-67.66-40.46-125.02-115.51-50.01-64.74-91.19-101.53-114.73-101.53-14.71,0-13.24,3.68,15.45,32.37,17.65,17.66,36.03,39.73,41.18,49.3s-7.35.73-27.21-19.87c-19.86-21.34-47.07-43.41-60.307-50.03-19.856-10.3-22.063-14.71-15.444-26.49,10.3-19.86,45.6-36.78,75.751-36.78,75.75,0,136.79,48.56,225.04,178.78,29.42,43.41,56.63,80.2,59.57,82.4s13.98-2.94,22.8-10.3c14.71-12.5,16.18-16.92,8.83-27.95-62.52-91.24-71.34-173.64-22.07-200.13,8.83-4.41,22.07-18.39,28.69-30.16,10.29-18.394,16.91-22.073,41.18-22.073,17.65,0,33.09-4.414,38.98-11.772,5.15-6.622,26.47-21.337,47.07-33.108C1548.25,921.159,1594.58,916.008,1645.32,929.988Zm179.45,160.392c11.03,47.82,11.03,64.01,3.68,106.68-16.18,94.91-62.52,177.32-146.36,256.78-24.26,23.54-75.01,76.51-112.52,117.71-100.02,111.1-272.11,279.59-312.56,306.07-55.89,37.53-67.66,34.58-172.83-47.82-255.927-199.39-370.655-322.26-411.84-441.45-16.179-48.55-18.386-110.36-3.677-144.94,9.561-22.07,45.6-63.27,56.629-63.27,2.206,0,1.47,15.45-1.471,34.58-13.973,90.5,49.274,217.04,159.59,317.84,50.745,46.35,102.225,81.67,189.739,130.23,35.3,19.86,72.08,44.88,81.64,55.91l16.18,19.13,53.68-28.69c125.76-68.43,260.35-171.43,422.14-322.99,54.43-51.5,105.91-123.61,127.97-180.99,18.39-46.36,33.83-128.76,29.42-156.72C1797.56,1005.03,1812.27,1034.46,1824.77,1090.38Z"/>
</svg>
