<svg xmlns="http://www.w3.org/2000/svg" width="788" height="121" viewBox="0 0 788 121">
  <defs>
    <style>
      .cls-1 {
        fill: #5f2b7a;
      }

      .cls-1, .cls-2 {
        fill-rule: evenodd;
      }
    </style>
  </defs>
  <path class="cls-1" d="M79,107s5.973-23.558,22-37c14.934-12.526,41-11,41-11s-1.72,14.646-10,26c-8.409,11.53-16.933,18.008-30,21A67.08,67.08,0,0,1,79,107ZM14,95c0-2.838,24-14,24-14A104.534,104.534,0,0,0,50,97c7.557,8.078,25,15,25,15s-24.487-1.666-38-6C24.024,101.838,14,97.838,14,95ZM37,58s15.821,0.418,28,6c11.816,5.416,20,16,20,16a70.816,70.816,0,0,0-5,11,130.918,130.918,0,0,0-4,15c-1.83,1.824-17.751-6.042-27.5-18.641C39.325,75.5,37,58,37,58ZM89,72s6.095-7.016,13-11a34.517,34.517,0,0,1,13-4s-1.016-16.033-7-28C101.984,16.968,93.936,9,91,9S79.5,18.991,74,31c-5.5,11.991-5,26-5,26a60.065,60.065,0,0,1,10,6A94.367,94.367,0,0,1,89,72ZM51,36l12,6V54L50,50Zm80,0-12,5,2,13,11-3Zm33,59c0-2.838-23-14-23-14s-0.523,4.524-12,16-40,15-40,15,38.487-1.666,52-6C153.976,101.838,164,97.838,164,95Z"/>
  <path id="motherly_copy" data-name="motherly copy" class="cls-2" d="M208.466,88.6c0,3.417,1.667,6.667,6.084,6.667s6.084-3.25,6.084-6.667V51.43H220.8l12.751,39.837c0.917,2.834,3,4,5.834,4s4.917-1.167,5.834-4L257.971,51.43h0.167V88.6c0,3.417,1.666,6.667,6.084,6.667s6.083-3.25,6.083-6.667V39.846c0-5.5-3.75-6.751-7.417-6.751h-3.834c-4.25,0-6.25,1.667-7.667,6.251l-11.751,38.5h-0.167l-11.918-38.5c-1.416-4.584-3.417-6.251-7.667-6.251h-4c-3.667,0-7.418,1.25-7.418,6.751V88.6Zm81.582-25.169c0,18.168,8.834,32.17,30.336,32.17,20.5,0,30.337-15.251,30.337-32.17,0-17.585-10.668-30.67-30.337-30.67S290.048,45.847,290.048,63.432Zm13.668,0c0-11.5,5.5-19.668,16.668-19.668s16.669,8.167,16.669,19.669S332.8,84.6,320.384,84.6C307.55,84.6,303.716,74.933,303.716,63.432Zm81.667,25a6.834,6.834,0,0,0,13.668,0V45.68h12.918c3.917,0,7.083-2,7.083-5.751s-3.166-5.751-7.083-5.751h-39.5c-3.917,0-7.084,2-7.084,5.751s3.167,5.751,7.084,5.751h12.918V88.434Zm51,0a6.834,6.834,0,1,0,13.668,0v-20h24.836v20a6.834,6.834,0,1,0,13.668,0v-48.5a6.834,6.834,0,1,0-13.668,0v17H450.049v-17a6.834,6.834,0,1,0-13.668,0v48.5Zm75.167-2.25c0,6.084,3.167,8,8,8H552.3c4,0,6.917-1.167,6.917-5.5s-2.917-5.5-6.917-5.5H525.216v-14.5h23.169c3.583,0,6.417-1,6.417-5.25s-2.834-5.251-6.417-5.251H525.216v-13h26.419c4,0,6.917-1.167,6.917-5.5s-2.917-5.5-6.917-5.5H519.549c-4.834,0-8,1.917-8,8v44Zm66.75,2.25a6.834,6.834,0,0,0,13.668,0V70.849h13.5c7.5,0,9.417,4.25,9.417,14.751,0,2.417.584,9.668,8.085,9.668,3.167,0,6.417-2.167,6.417-5.334,0-2.834-1.834-5.417-1.834-12.334,0-6.084-1.25-11.168-8.25-12.168V65.265c6.5-1.5,10.334-7.917,10.334-14.418,0-7.751-4.334-16.668-20.585-16.668H586.3c-4.833,0-8,1.917-8,8V88.434ZM591.966,44.68H606.05c6,0,9.918,1.667,9.918,8.084,0,6.751-5.167,8.084-10.334,8.084H591.966V44.68Zm58.081,41.5c0,6.084,3.167,8,8,8h28.5c3.917,0,7.084-2,7.084-5.751s-3.167-5.75-7.084-5.75H663.715V39.929a6.834,6.834,0,0,0-13.668,0V86.184Zm73.251,2.25a6.834,6.834,0,0,0,13.668,0V70.766L753.718,42.93a7.04,7.04,0,0,0,1.166-3.584c0-4.667-4.25-6.251-6.75-6.251-2.834,0-4.334,1-5.918,4L730.382,59.015,718.464,37.1c-1.417-2.667-2.917-4-6.167-4-2.667,0-6.917,1.584-6.917,6.251a7.04,7.04,0,0,0,1.166,3.584L723.3,70.766V88.434Z"/>
</svg>
